<svg width="279" height="47" viewBox="0 0 279 47" fill="none" xmlns="http://www.w3.org/2000/svg">
<path d="M0.672002 35.664C0.224002 35.664 2.08616e-06 35.504 2.08616e-06 35.184C2.08616e-06 34.864 0.256002 34.656 0.768002 34.56L2.784 34.224C3.424 34.128 3.904 33.968 4.224 33.744C4.544 33.488 4.768 33.024 4.896 32.352L11.568 3.552C11.664 3.104 11.616 2.784 11.424 2.592C11.264 2.4 10.88 2.304 10.272 2.304C9.184 2.304 7.984 2.752 6.672 3.648C5.392 4.512 4.24 6.144 3.216 8.544L2.448 10.368C2.288 10.784 2.016 10.992 1.632 10.992C1.184 10.992 1.04 10.72 1.2 10.176L3.6 1.488C3.792 0.752001 4.144 0.384001 4.656 0.384001C4.944 0.384001 5.168 0.448001 5.328 0.576001C5.52 0.672 5.824 0.783999 6.24 0.912C6.656 1.04 7.376 1.104 8.4 1.104H19.104C20.128 1.104 20.88 1.04 21.36 0.912C21.872 0.783999 22.24 0.672 22.464 0.576001C22.72 0.448001 22.944 0.384001 23.136 0.384001C23.68 0.384001 23.872 0.752001 23.712 1.488L22.176 10.176C22.08 10.72 21.808 10.992 21.36 10.992C20.944 10.992 20.768 10.784 20.832 10.368L20.928 9.168C21.12 6.8 20.816 5.072 20.016 3.984C19.216 2.864 18.096 2.304 16.656 2.304C16.048 2.304 15.616 2.4 15.36 2.592C15.136 2.784 14.976 3.104 14.88 3.552L8.208 32.352C8.048 33.024 8.064 33.488 8.256 33.744C8.48 33.968 8.896 34.128 9.504 34.224L11.76 34.56C12.112 34.592 12.288 34.768 12.288 35.088C12.288 35.472 12.032 35.664 11.52 35.664H0.672002ZM35.133 36.096C33.981 36.096 33.117 35.616 32.541 34.656C31.965 33.696 31.933 32.208 32.445 30.192L36.141 16.272C36.493 15.024 36.541 14.16 36.285 13.68C36.061 13.2 35.725 12.96 35.277 12.96C34.573 12.96 33.773 13.408 32.877 14.304C32.013 15.168 31.101 16.368 30.141 17.904C29.213 19.408 28.301 21.12 27.405 23.04C26.541 24.928 25.741 26.928 25.005 29.04C24.269 31.12 23.677 33.152 23.229 35.136C23.133 35.488 22.909 35.664 22.557 35.664H20.541C20.093 35.664 19.917 35.456 20.013 35.04L27.021 4.944C27.181 4.368 27.181 3.968 27.021 3.744C26.893 3.52 26.605 3.392 26.157 3.36L24.717 3.216C24.237 3.184 24.029 2.976 24.093 2.592C24.157 2.304 24.381 2.128 24.765 2.064C25.917 1.872 26.941 1.648 27.837 1.392C28.733 1.104 29.453 0.735999 29.997 0.287999C30.253 0.0959997 30.493 0 30.717 0C31.101 0 31.245 0.24 31.149 0.719999L26.445 21.12C26.413 21.344 26.461 21.472 26.589 21.504C26.717 21.536 26.829 21.456 26.925 21.264C28.205 18.64 29.421 16.576 30.573 15.072C31.725 13.568 32.797 12.496 33.789 11.856C34.813 11.216 35.741 10.896 36.573 10.896C37.757 10.896 38.621 11.376 39.165 12.336C39.709 13.296 39.709 14.768 39.165 16.752L35.517 30.672C35.293 31.568 35.277 32.24 35.469 32.688C35.661 33.136 36.013 33.36 36.525 33.36C37.165 33.36 37.789 32.944 38.397 32.112C39.005 31.248 39.661 29.632 40.365 27.264C40.461 26.912 40.669 26.736 40.989 26.736C41.245 26.736 41.389 26.832 41.421 27.024C41.485 27.216 41.485 27.44 41.421 27.696C40.813 29.872 40.157 31.584 39.453 32.832C38.749 34.048 38.029 34.896 37.293 35.376C36.589 35.856 35.869 36.096 35.133 36.096ZM48.6971 36.096C47.0011 36.096 45.6411 35.44 44.6171 34.128C43.5931 32.784 43.0811 30.896 43.0811 28.464C43.0811 26.352 43.4491 24.256 44.1851 22.176C44.9531 20.096 45.9451 18.208 47.1611 16.512C48.3771 14.816 49.7051 13.456 51.1451 12.432C52.6171 11.408 54.0411 10.896 55.4171 10.896C56.9211 10.896 57.9931 11.264 58.6331 12C59.3051 12.704 59.6411 13.664 59.6411 14.88C59.6411 16.32 59.1291 17.76 58.1051 19.2C57.1131 20.608 55.7051 21.872 53.8811 22.992C52.0891 24.112 49.9771 24.944 47.5451 25.488C46.8411 25.648 46.4731 26.048 46.4411 26.688C46.4091 26.912 46.3931 27.152 46.3931 27.408C46.3931 27.632 46.3931 27.856 46.3931 28.08C46.3931 29.904 46.6971 31.28 47.3051 32.208C47.9451 33.136 48.8091 33.6 49.8971 33.6C51.1131 33.6 52.2811 33.04 53.4011 31.92C54.5531 30.8 55.5131 29.216 56.2811 27.168C56.3771 26.88 56.5691 26.736 56.8571 26.736C57.0491 26.736 57.1611 26.816 57.1931 26.976C57.2571 27.136 57.2571 27.328 57.1931 27.552C56.1691 30.368 54.9211 32.496 53.4491 33.936C52.0091 35.376 50.4251 36.096 48.6971 36.096ZM46.9211 23.664C46.8571 23.888 46.8891 24.08 47.0171 24.24C47.1771 24.368 47.3691 24.4 47.5931 24.336C49.5771 23.792 51.2411 22.976 52.5851 21.888C53.9291 20.768 54.9371 19.52 55.6091 18.144C56.3131 16.768 56.6651 15.424 56.6651 14.112C56.6651 12.768 56.1371 12.096 55.0811 12.096C54.1531 12.096 53.1451 12.64 52.0571 13.728C50.9691 14.816 49.9611 16.24 49.0331 18C48.1051 19.76 47.4011 21.648 46.9211 23.664ZM66.2929 35.664C65.8449 35.664 65.6209 35.504 65.6209 35.184C65.6209 34.832 65.9409 34.608 66.5809 34.512L67.5409 34.368C68.2449 34.272 68.7249 34.112 68.9809 33.888C69.2689 33.632 69.4769 33.168 69.6049 32.496L76.1329 4.272C76.2929 3.6 76.2929 3.152 76.1329 2.928C75.9729 2.704 75.5729 2.528 74.9329 2.4L73.9729 2.208C73.5569 2.112 73.3489 1.936 73.3489 1.68C73.3489 1.296 73.6369 1.104 74.2129 1.104H82.7569C83.2049 1.104 83.4289 1.264 83.4289 1.584C83.4289 1.936 83.1089 2.16 82.4689 2.256L81.5089 2.4C80.8049 2.496 80.3249 2.672 80.0689 2.928C79.8129 3.152 79.6049 3.6 79.4449 4.272L72.9169 32.496C72.7889 33.168 72.7889 33.616 72.9169 33.84C73.0769 34.064 73.4769 34.24 74.1169 34.368L75.0769 34.56C75.4929 34.656 75.7009 34.832 75.7009 35.088C75.7009 35.472 75.4129 35.664 74.8369 35.664H66.2929ZM81.8929 35.04L86.4529 15.888C86.6129 15.184 86.6289 14.64 86.5009 14.256C86.4049 13.84 86.1169 13.632 85.6369 13.632C85.0609 13.632 84.4209 14.064 83.7169 14.928C83.0449 15.76 82.2769 17.36 81.4129 19.728C81.2849 20.144 81.0609 20.352 80.7409 20.352C80.2609 20.352 80.1329 20.064 80.3569 19.488C81.0609 17.28 81.7969 15.552 82.5649 14.304C83.3649 13.056 84.1649 12.176 84.9649 11.664C85.7649 11.152 86.5009 10.896 87.1729 10.896C88.2289 10.896 88.9809 11.296 89.4289 12.096C89.8769 12.864 89.8929 14.144 89.4769 15.936L88.2769 21.12C88.2449 21.344 88.2929 21.472 88.4209 21.504C88.5489 21.536 88.6609 21.456 88.7569 21.264C90.0049 18.672 91.2049 16.624 92.3569 15.12C93.5089 13.584 94.5969 12.496 95.6209 11.856C96.6449 11.216 97.5729 10.896 98.4049 10.896C99.5889 10.896 100.453 11.376 100.997 12.336C101.541 13.296 101.541 14.768 100.997 16.752L97.3489 30.672C97.1249 31.568 97.1089 32.24 97.3009 32.688C97.4929 33.136 97.8449 33.36 98.3569 33.36C98.9969 33.36 99.6209 32.944 100.229 32.112C100.869 31.248 101.525 29.632 102.197 27.264C102.293 26.912 102.501 26.736 102.821 26.736C103.077 26.736 103.221 26.832 103.253 27.024C103.317 27.216 103.317 27.44 103.253 27.696C102.645 29.872 101.989 31.584 101.285 32.832C100.581 34.048 99.8609 34.896 99.1249 35.376C98.4209 35.856 97.7009 36.096 96.9649 36.096C95.8129 36.096 94.9489 35.616 94.3729 34.656C93.7969 33.696 93.7649 32.208 94.2769 30.192L97.9729 16.272C98.3249 15.024 98.3729 14.16 98.1169 13.68C97.8929 13.2 97.5569 12.96 97.1089 12.96C96.4049 12.96 95.6049 13.408 94.7089 14.304C93.8129 15.168 92.9009 16.368 91.9729 17.904C91.0449 19.408 90.1329 21.12 89.2369 23.04C88.3409 24.96 87.5249 26.96 86.7889 29.04C86.0849 31.12 85.5089 33.152 85.0609 35.136C84.9649 35.488 84.7409 35.664 84.3889 35.664H82.4209C81.9729 35.664 81.7969 35.456 81.8929 35.04ZM109.948 36.096C108.892 36.096 107.772 35.936 106.588 35.616C105.436 35.296 104.556 34.896 103.948 34.416C103.724 34.224 103.628 33.936 103.66 33.552L104.716 27.264C104.78 26.848 104.972 26.64 105.292 26.64C105.644 26.64 105.82 26.864 105.82 27.312L105.916 29.616C105.98 31.44 106.412 32.784 107.212 33.648C108.044 34.48 109.052 34.896 110.236 34.896C111.26 34.896 112.14 34.576 112.876 33.936C113.612 33.264 113.98 32.288 113.98 31.008C113.98 30.272 113.868 29.6 113.644 28.992C113.42 28.352 113.068 27.68 112.588 26.976C112.108 26.24 111.452 25.36 110.62 24.336C109.532 22.928 108.716 21.728 108.172 20.736C107.66 19.712 107.404 18.656 107.404 17.568C107.404 15.552 108.028 13.936 109.276 12.72C110.556 11.504 112.172 10.896 114.124 10.896C114.988 10.896 115.82 11.024 116.62 11.28C117.452 11.536 118.14 11.92 118.684 12.432C118.972 12.656 119.068 12.944 118.972 13.296L117.628 19.728C117.532 20.144 117.34 20.352 117.052 20.352C116.764 20.352 116.588 20.128 116.524 19.68L116.38 17.376C116.252 15.456 115.996 14.08 115.612 13.248C115.26 12.416 114.508 12 113.356 12C112.332 12 111.5 12.352 110.86 13.056C110.22 13.76 109.9 14.608 109.9 15.6C109.9 16.656 110.188 17.632 110.764 18.528C111.34 19.392 112.124 20.496 113.116 21.84C114.428 23.568 115.308 24.944 115.756 25.968C116.236 26.992 116.476 28.032 116.476 29.088C116.476 30.432 116.172 31.632 115.564 32.688C114.988 33.744 114.204 34.576 113.212 35.184C112.22 35.792 111.132 36.096 109.948 36.096ZM128.657 6.624C128.049 6.624 127.537 6.416 127.121 6C126.737 5.552 126.545 5.024 126.545 4.416C126.545 3.552 126.801 2.864 127.313 2.352C127.857 1.84 128.465 1.584 129.137 1.584C129.777 1.584 130.305 1.792 130.721 2.208C131.169 2.592 131.393 3.104 131.393 3.744C131.393 4.64 131.121 5.344 130.577 5.856C130.033 6.368 129.393 6.624 128.657 6.624ZM124.721 36.144C123.665 36.144 122.913 35.76 122.465 34.992C122.017 34.192 122.001 32.896 122.417 31.104L125.969 15.888C126.129 15.184 126.145 14.64 126.017 14.256C125.921 13.84 125.633 13.632 125.153 13.632C124.577 13.632 123.937 14.064 123.233 14.928C122.561 15.76 121.793 17.36 120.929 19.728C120.801 20.144 120.577 20.352 120.257 20.352C119.777 20.352 119.649 20.064 119.873 19.488C120.577 17.28 121.313 15.552 122.081 14.304C122.881 13.056 123.681 12.176 124.481 11.664C125.281 11.152 126.017 10.896 126.689 10.896C127.809 10.896 128.593 11.296 129.041 12.096C129.489 12.864 129.505 14.144 129.089 15.936L125.537 31.152C125.377 31.856 125.345 32.416 125.441 32.832C125.569 33.216 125.873 33.408 126.353 33.408C126.929 33.408 127.553 32.992 128.225 32.16C128.929 31.296 129.713 29.68 130.577 27.312C130.705 26.896 130.929 26.688 131.249 26.688C131.729 26.688 131.857 26.976 131.633 27.552C130.961 29.728 130.209 31.456 129.377 32.736C128.577 33.984 127.777 34.864 126.977 35.376C126.177 35.888 125.425 36.144 124.721 36.144ZM136.5 46.032C133.972 46.032 132.052 45.568 130.74 44.64C129.428 43.712 128.772 42.608 128.772 41.328C128.772 40.208 129.22 39.104 130.116 38.016C130.98 36.96 132.596 35.744 134.964 34.368C135.316 34.176 135.508 33.968 135.54 33.744C135.604 33.488 135.46 33.248 135.108 33.024C134.212 32.448 133.668 31.776 133.476 31.008C133.316 30.24 133.524 29.696 134.1 29.376L137.748 27.264C138.068 27.104 138.228 26.912 138.228 26.688C138.26 26.432 138.1 26.208 137.748 26.016C136.884 25.504 136.228 24.784 135.78 23.856C135.364 22.896 135.156 21.856 135.156 20.736C135.156 19.008 135.572 17.408 136.404 15.936C137.268 14.432 138.404 13.216 139.812 12.288C141.252 11.36 142.852 10.896 144.612 10.896C145.348 10.896 145.972 10.992 146.484 11.184C146.868 11.312 147.156 11.184 147.348 10.8C147.892 9.616 148.58 8.688 149.412 8.016C150.276 7.312 151.172 6.96 152.1 6.96C152.772 6.96 153.284 7.136 153.636 7.488C154.02 7.84 154.212 8.32 154.212 8.928C154.212 9.536 154.036 10.032 153.684 10.416C153.332 10.8 152.884 10.992 152.34 10.992C151.924 10.992 151.604 10.912 151.38 10.752C151.188 10.592 151.012 10.432 150.852 10.272C150.692 10.112 150.436 10.032 150.084 10.032C149.38 10.032 148.82 10.432 148.404 11.232C148.276 11.52 148.244 11.792 148.308 12.048C148.372 12.272 148.5 12.512 148.692 12.768C149.524 13.856 149.94 15.232 149.94 16.896C149.94 18.4 149.604 19.84 148.932 21.216C148.292 22.56 147.396 23.712 146.244 24.672C145.124 25.6 143.828 26.224 142.356 26.544C141.78 26.672 141.252 26.832 140.772 27.024C140.324 27.184 139.748 27.488 139.044 27.936L137.124 29.088C136.644 29.376 136.516 29.744 136.74 30.192C136.964 30.608 137.588 31.008 138.612 31.392L142.74 32.928C144.532 33.568 145.764 34.352 146.436 35.28C147.14 36.208 147.492 37.296 147.492 38.544C147.492 40.08 146.98 41.408 145.956 42.528C144.964 43.648 143.636 44.512 141.972 45.12C140.308 45.728 138.484 46.032 136.5 46.032ZM138.372 21.6C138.372 23.072 138.58 24.144 138.996 24.816C139.444 25.456 140.068 25.776 140.868 25.776C141.892 25.776 142.836 25.312 143.7 24.384C144.596 23.424 145.316 22.208 145.86 20.736C146.404 19.232 146.676 17.68 146.676 16.08C146.676 14.48 146.468 13.392 146.052 12.816C145.636 12.208 145.012 11.904 144.18 11.904C143.188 11.904 142.244 12.384 141.348 13.344C140.452 14.272 139.732 15.472 139.188 16.944C138.644 18.416 138.372 19.968 138.372 21.6ZM137.028 44.832C138.276 44.832 139.444 44.624 140.532 44.208C141.62 43.792 142.5 43.2 143.172 42.432C143.876 41.664 144.228 40.752 144.228 39.696C144.228 38.64 143.956 37.76 143.412 37.056C142.9 36.384 141.876 35.76 140.34 35.184L139.428 34.848C138.852 34.624 138.276 34.544 137.7 34.608C137.124 34.672 136.58 34.832 136.068 35.088C134.34 36.048 133.172 36.944 132.564 37.776C131.956 38.608 131.652 39.52 131.652 40.512C131.652 41.696 132.084 42.704 132.948 43.536C133.812 44.4 135.172 44.832 137.028 44.832ZM166.758 36.096C165.606 36.096 164.742 35.616 164.166 34.656C163.59 33.696 163.558 32.208 164.07 30.192L167.766 16.272C168.118 15.024 168.166 14.16 167.91 13.68C167.686 13.2 167.35 12.96 166.902 12.96C166.198 12.96 165.398 13.408 164.502 14.304C163.638 15.168 162.726 16.368 161.766 17.904C160.838 19.408 159.926 21.12 159.03 23.04C158.166 24.928 157.366 26.928 156.63 29.04C155.894 31.12 155.302 33.152 154.854 35.136C154.758 35.488 154.534 35.664 154.182 35.664H152.166C151.718 35.664 151.542 35.456 151.638 35.04L158.646 4.944C158.806 4.368 158.806 3.968 158.646 3.744C158.518 3.52 158.23 3.392 157.782 3.36L156.342 3.216C155.862 3.184 155.654 2.976 155.718 2.592C155.782 2.304 156.006 2.128 156.39 2.064C157.542 1.872 158.566 1.648 159.462 1.392C160.358 1.104 161.078 0.735999 161.622 0.287999C161.878 0.0959997 162.118 0 162.342 0C162.726 0 162.87 0.24 162.774 0.719999L158.07 21.12C158.038 21.344 158.086 21.472 158.214 21.504C158.342 21.536 158.454 21.456 158.55 21.264C159.83 18.64 161.046 16.576 162.198 15.072C163.35 13.568 164.422 12.496 165.414 11.856C166.438 11.216 167.366 10.896 168.198 10.896C169.382 10.896 170.246 11.376 170.79 12.336C171.334 13.296 171.334 14.768 170.79 16.752L167.142 30.672C166.918 31.568 166.902 32.24 167.094 32.688C167.286 33.136 167.638 33.36 168.15 33.36C168.79 33.36 169.414 32.944 170.022 32.112C170.63 31.248 171.286 29.632 171.99 27.264C172.086 26.912 172.294 26.736 172.614 26.736C172.87 26.736 173.014 26.832 173.046 27.024C173.11 27.216 173.11 27.44 173.046 27.696C172.438 29.872 171.782 31.584 171.078 32.832C170.374 34.048 169.654 34.896 168.918 35.376C168.214 35.856 167.494 36.096 166.758 36.096ZM179.026 36.096C177.938 36.096 177.09 35.664 176.482 34.8C175.874 33.936 175.778 32.544 176.194 30.624L180.178 13.248C180.274 12.768 180.082 12.528 179.602 12.528H177.778C177.33 12.528 177.106 12.32 177.106 11.904C177.106 11.68 177.186 11.504 177.346 11.376C177.506 11.248 177.698 11.184 177.922 11.184H179.65C180.386 11.184 180.818 10.848 180.946 10.176L182.098 5.04C182.194 4.688 182.418 4.512 182.77 4.512H184.738C185.186 4.512 185.362 4.72 185.266 5.136L184.066 10.464C183.97 10.944 184.162 11.184 184.642 11.184H187.378C187.922 11.184 188.194 11.392 188.194 11.808C188.194 12.288 187.858 12.528 187.186 12.528H184.594C183.89 12.528 183.458 12.864 183.298 13.536L179.266 31.104C179.106 31.808 179.122 32.368 179.314 32.784C179.538 33.168 179.906 33.36 180.418 33.36C181.154 33.36 181.826 32.944 182.434 32.112C183.074 31.28 183.746 29.696 184.45 27.36C184.578 26.944 184.786 26.736 185.074 26.736C185.298 26.736 185.442 26.832 185.506 27.024C185.57 27.216 185.522 27.568 185.362 28.08C184.754 30.256 184.082 31.92 183.346 33.072C182.642 34.224 181.922 35.024 181.186 35.472C180.45 35.888 179.73 36.096 179.026 36.096ZM190.28 35.664C189.832 35.664 189.656 35.456 189.752 35.04L194.312 15.888C194.472 15.184 194.488 14.64 194.36 14.256C194.264 13.84 193.976 13.632 193.496 13.632C192.92 13.632 192.28 14.064 191.576 14.928C190.904 15.76 190.136 17.36 189.272 19.728C189.144 20.144 188.92 20.352 188.6 20.352C188.12 20.352 187.992 20.064 188.216 19.488C188.92 17.28 189.656 15.552 190.424 14.304C191.224 13.056 192.024 12.176 192.824 11.664C193.624 11.152 194.36 10.896 195.032 10.896C196.088 10.896 196.84 11.296 197.288 12.096C197.736 12.864 197.752 14.144 197.336 15.936L196.808 18.192C196.776 18.416 196.824 18.544 196.952 18.576C197.08 18.608 197.192 18.528 197.288 18.336C198.504 15.552 199.608 13.616 200.6 12.528C201.592 11.44 202.728 10.896 204.008 10.896C204.872 10.896 205.512 11.136 205.928 11.616C206.376 12.064 206.6 12.688 206.6 13.488C206.6 14.288 206.408 14.928 206.024 15.408C205.64 15.888 205.144 16.128 204.536 16.128C204.024 16.128 203.656 16 203.432 15.744C203.208 15.488 203.032 15.2 202.904 14.88C202.808 14.528 202.696 14.224 202.568 13.968C202.44 13.712 202.232 13.584 201.944 13.584C201.464 13.584 200.84 14.192 200.072 15.408C199.304 16.624 198.472 18.272 197.576 20.352C196.712 22.4 195.864 24.704 195.032 27.264C194.232 29.824 193.528 32.448 192.92 35.136C192.824 35.488 192.6 35.664 192.248 35.664H190.28ZM211.428 36.096C209.444 36.096 207.876 35.28 206.724 33.648C205.572 31.984 204.996 29.744 204.996 26.928C204.996 24.848 205.332 22.848 206.004 20.928C206.676 19.008 207.556 17.296 208.644 15.792C209.764 14.288 210.996 13.104 212.34 12.24C213.716 11.344 215.092 10.896 216.468 10.896C218.452 10.896 220.02 11.712 221.172 13.344C222.324 14.976 222.9 17.216 222.9 20.064C222.9 22.144 222.564 24.144 221.892 26.064C221.22 27.984 220.324 29.696 219.204 31.2C218.116 32.704 216.884 33.904 215.508 34.8C214.164 35.664 212.804 36.096 211.428 36.096ZM211.332 34.944C212.356 34.944 213.348 34.448 214.308 33.456C215.3 32.464 216.196 31.152 216.996 29.52C217.796 27.888 218.436 26.08 218.916 24.096C219.396 22.08 219.636 20.064 219.636 18.048C219.636 14.048 218.596 12.048 216.516 12.048C215.524 12.048 214.532 12.544 213.54 13.536C212.548 14.496 211.652 15.792 210.852 17.424C210.084 19.056 209.46 20.88 208.98 22.896C208.5 24.88 208.26 26.88 208.26 28.896C208.26 32.928 209.284 34.944 211.332 34.944ZM231.303 36.096C229.319 36.096 227.751 35.28 226.599 33.648C225.447 31.984 224.871 29.744 224.871 26.928C224.871 24.848 225.207 22.848 225.879 20.928C226.551 19.008 227.431 17.296 228.519 15.792C229.639 14.288 230.871 13.104 232.215 12.24C233.591 11.344 234.967 10.896 236.343 10.896C238.327 10.896 239.895 11.712 241.047 13.344C242.199 14.976 242.775 17.216 242.775 20.064C242.775 22.144 242.439 24.144 241.767 26.064C241.095 27.984 240.199 29.696 239.079 31.2C237.991 32.704 236.759 33.904 235.383 34.8C234.039 35.664 232.679 36.096 231.303 36.096ZM231.207 34.944C232.231 34.944 233.223 34.448 234.183 33.456C235.175 32.464 236.071 31.152 236.871 29.52C237.671 27.888 238.311 26.08 238.791 24.096C239.271 22.08 239.511 20.064 239.511 18.048C239.511 14.048 238.471 12.048 236.391 12.048C235.399 12.048 234.407 12.544 233.415 13.536C232.423 14.496 231.527 15.792 230.727 17.424C229.959 19.056 229.335 20.88 228.855 22.896C228.375 24.88 228.135 26.88 228.135 28.896C228.135 32.928 229.159 34.944 231.207 34.944ZM272.154 36.096C271.002 36.096 270.138 35.616 269.562 34.656C268.986 33.696 268.954 32.208 269.466 30.192L273.162 16.272C273.514 15.024 273.562 14.16 273.306 13.68C273.082 13.2 272.746 12.96 272.298 12.96C271.658 12.96 270.922 13.408 270.09 14.304C269.258 15.168 268.378 16.352 267.45 17.856C266.554 19.36 265.674 21.072 264.81 22.992C263.946 24.912 263.146 26.912 262.41 28.992C261.674 31.072 261.066 33.12 260.586 35.136C260.49 35.488 260.266 35.664 259.914 35.664H258.042C257.594 35.664 257.418 35.456 257.514 35.04L261.93 16.272C262.218 15.024 262.25 14.16 262.026 13.68C261.834 13.2 261.514 12.96 261.066 12.96C260.458 12.96 259.738 13.408 258.906 14.304C258.074 15.168 257.21 16.352 256.314 17.856C255.418 19.36 254.538 21.072 253.674 22.992C252.81 24.912 252.01 26.912 251.274 28.992C250.538 31.072 249.946 33.12 249.498 35.136C249.402 35.488 249.178 35.664 248.826 35.664H246.858C246.41 35.664 246.234 35.456 246.33 35.04L250.89 15.888C251.05 15.184 251.066 14.64 250.938 14.256C250.842 13.84 250.554 13.632 250.074 13.632C249.498 13.632 248.858 14.064 248.154 14.928C247.482 15.76 246.714 17.36 245.85 19.728C245.722 20.144 245.498 20.352 245.178 20.352C244.698 20.352 244.57 20.064 244.794 19.488C245.498 17.28 246.234 15.552 247.002 14.304C247.802 13.056 248.602 12.176 249.402 11.664C250.202 11.152 250.938 10.896 251.61 10.896C252.666 10.896 253.418 11.296 253.866 12.096C254.314 12.864 254.33 14.144 253.914 15.936L252.714 21.12C252.682 21.344 252.73 21.472 252.858 21.504C252.986 21.536 253.098 21.456 253.194 21.264C255.05 17.424 256.73 14.736 258.234 13.2C259.738 11.664 261.114 10.896 262.362 10.896C263.546 10.896 264.378 11.376 264.858 12.336C265.37 13.296 265.402 14.768 264.954 16.752L263.946 21.12C263.914 21.344 263.962 21.472 264.09 21.504C264.218 21.536 264.33 21.456 264.426 21.264C265.642 18.672 266.778 16.624 267.834 15.12C268.922 13.584 269.946 12.496 270.906 11.856C271.866 11.216 272.762 10.896 273.594 10.896C274.778 10.896 275.642 11.376 276.186 12.336C276.73 13.296 276.73 14.768 276.186 16.752L272.538 30.672C272.314 31.568 272.298 32.24 272.49 32.688C272.682 33.136 273.034 33.36 273.546 33.36C274.186 33.36 274.81 32.944 275.418 32.112C276.058 31.248 276.714 29.632 277.386 27.264C277.482 26.912 277.69 26.736 278.01 26.736C278.266 26.736 278.41 26.832 278.442 27.024C278.506 27.216 278.506 27.44 278.442 27.696C277.834 29.872 277.178 31.584 276.474 32.832C275.77 34.048 275.05 34.896 274.314 35.376C273.61 35.856 272.89 36.096 272.154 36.096Z" fill="#E5A800"/>
</svg>
