<svg width="381" height="62" viewBox="0 0 381 62" fill="none" xmlns="http://www.w3.org/2000/svg">
<path d="M1.16 48C0.562667 48 0.264 47.7867 0.264 47.36C0.264 46.9333 0.605333 46.656 1.288 46.528L3.976 46.08C4.82933 45.952 5.46933 45.7387 5.896 45.44C6.32267 45.0987 6.62133 44.48 6.792 43.584L15.688 5.184C15.816 4.58666 15.752 4.16 15.496 3.904C15.2827 3.648 14.7707 3.52 13.96 3.52C12.5093 3.52 10.9093 4.11733 9.16 5.312C7.45333 6.464 5.91733 8.64 4.552 11.84L3.528 14.272C3.31467 14.8267 2.952 15.104 2.44 15.104C1.84267 15.104 1.65067 14.7413 1.864 14.016L5.064 2.432C5.32 1.45067 5.78933 0.959999 6.472 0.959999C6.856 0.959999 7.15467 1.04533 7.368 1.216C7.624 1.344 8.02933 1.49333 8.584 1.664C9.13867 1.83466 10.0987 1.92 11.464 1.92H25.736C27.1013 1.92 28.104 1.83466 28.744 1.664C29.4267 1.49333 29.9173 1.344 30.216 1.216C30.5573 1.04533 30.856 0.959999 31.112 0.959999C31.8373 0.959999 32.0933 1.45067 31.88 2.432L29.832 14.016C29.704 14.7413 29.3413 15.104 28.744 15.104C28.1893 15.104 27.9547 14.8267 28.04 14.272L28.168 12.672C28.424 9.51466 28.0187 7.21066 26.952 5.76C25.8853 4.26666 24.392 3.52 22.472 3.52C21.6613 3.52 21.0853 3.648 20.744 3.904C20.4453 4.16 20.232 4.58666 20.104 5.184L11.208 43.584C10.9947 44.48 11.016 45.0987 11.272 45.44C11.5707 45.7387 12.1253 45.952 12.936 46.08L15.944 46.528C16.4133 46.5707 16.648 46.8053 16.648 47.232C16.648 47.744 16.3067 48 15.624 48H1.16ZM47.108 48.576C45.572 48.576 44.42 47.936 43.652 46.656C42.884 45.376 42.8413 43.392 43.524 40.704L48.452 22.144C48.9213 20.48 48.9853 19.328 48.644 18.688C48.3453 18.048 47.8973 17.728 47.3 17.728C46.3613 17.728 45.2947 18.3253 44.1 19.52C42.948 20.672 41.732 22.272 40.452 24.32C39.2147 26.3253 37.9987 28.608 36.804 31.168C35.652 33.6853 34.5853 36.352 33.604 39.168C32.6227 41.9413 31.8333 44.6507 31.236 47.296C31.108 47.7653 30.8093 48 30.34 48H27.652C27.0547 48 26.82 47.7227 26.948 47.168L36.292 7.04C36.5053 6.272 36.5053 5.73866 36.292 5.44C36.1213 5.14133 35.7373 4.97066 35.14 4.928L33.22 4.736C32.58 4.69333 32.3027 4.416 32.388 3.904C32.4733 3.52 32.772 3.28533 33.284 3.2C34.82 2.944 36.1853 2.64533 37.38 2.304C38.5747 1.92 39.5347 1.42933 40.26 0.831997C40.6013 0.575998 40.9213 0.447998 41.22 0.447998C41.732 0.447998 41.924 0.767998 41.796 1.408L35.524 28.608C35.4813 28.9067 35.5453 29.0773 35.716 29.12C35.8867 29.1627 36.036 29.056 36.164 28.8C37.8707 25.3013 39.492 22.5493 41.028 20.544C42.564 18.5387 43.9933 17.1093 45.316 16.256C46.6813 15.4027 47.9187 14.976 49.028 14.976C50.6067 14.976 51.7587 15.616 52.484 16.896C53.2093 18.176 53.2093 20.1387 52.484 22.784L47.62 41.344C47.3213 42.5387 47.3 43.4347 47.556 44.032C47.812 44.6293 48.2813 44.928 48.964 44.928C49.8173 44.928 50.6493 44.3733 51.46 43.264C52.2707 42.112 53.1453 39.9573 54.084 36.8C54.212 36.3307 54.4893 36.096 54.916 36.096C55.2573 36.096 55.4493 36.224 55.492 36.48C55.5773 36.736 55.5773 37.0347 55.492 37.376C54.6813 40.2773 53.8067 42.56 52.868 44.224C51.9293 45.8453 50.9693 46.976 49.988 47.616C49.0493 48.256 48.0893 48.576 47.108 48.576ZM65.1935 48.576C62.9322 48.576 61.1188 47.7013 59.7535 45.952C58.3882 44.16 57.7055 41.6427 57.7055 38.4C57.7055 35.584 58.1962 32.7893 59.1775 30.016C60.2015 27.2427 61.5242 24.7253 63.1455 22.464C64.7668 20.2027 66.5375 18.3893 68.4575 17.024C70.4202 15.6587 72.3188 14.976 74.1535 14.976C76.1588 14.976 77.5882 15.4667 78.4415 16.448C79.3375 17.3867 79.7855 18.6667 79.7855 20.288C79.7855 22.208 79.1028 24.128 77.7375 26.048C76.4148 27.9253 74.5375 29.6107 72.1055 31.104C69.7162 32.5973 66.9002 33.7067 63.6575 34.432C62.7188 34.6453 62.2282 35.1787 62.1855 36.032C62.1428 36.3307 62.1215 36.6507 62.1215 36.992C62.1215 37.2907 62.1215 37.5893 62.1215 37.888C62.1215 40.32 62.5268 42.1547 63.3375 43.392C64.1908 44.6293 65.3428 45.248 66.7935 45.248C68.4148 45.248 69.9722 44.5013 71.4655 43.008C73.0015 41.5147 74.2815 39.4027 75.3055 36.672C75.4335 36.288 75.6895 36.096 76.0735 36.096C76.3295 36.096 76.4788 36.2027 76.5215 36.416C76.6068 36.6293 76.6068 36.8853 76.5215 37.184C75.1562 40.9387 73.4922 43.776 71.5295 45.696C69.6095 47.616 67.4975 48.576 65.1935 48.576ZM62.8255 32C62.7402 32.2987 62.7828 32.5547 62.9535 32.768C63.1668 32.9387 63.4228 32.9813 63.7215 32.896C66.3668 32.1707 68.5855 31.0827 70.3775 29.632C72.1695 28.1387 73.5135 26.4747 74.4095 24.64C75.3482 22.8053 75.8175 21.0133 75.8175 19.264C75.8175 17.472 75.1135 16.576 73.7055 16.576C72.4682 16.576 71.1242 17.3013 69.6735 18.752C68.2228 20.2027 66.8788 22.1013 65.6415 24.448C64.4042 26.7947 63.4655 29.312 62.8255 32ZM88.6545 48C88.0572 48 87.7585 47.7867 87.7585 47.36C87.7585 46.8907 88.1852 46.592 89.0385 46.464L90.3185 46.272C91.2572 46.144 91.8972 45.9307 92.2385 45.632C92.6225 45.2907 92.8998 44.672 93.0705 43.776L101.775 6.144C101.988 5.248 101.988 4.65067 101.775 4.352C101.561 4.05333 101.028 3.81867 100.175 3.648L98.8945 3.392C98.3398 3.264 98.0625 3.02933 98.0625 2.688C98.0625 2.176 98.4465 1.92 99.2145 1.92H110.607C111.204 1.92 111.503 2.13333 111.503 2.56C111.503 3.02933 111.076 3.328 110.223 3.456L108.943 3.648C108.004 3.776 107.364 4.01066 107.023 4.352C106.681 4.65067 106.404 5.248 106.191 6.144L97.4865 43.776C97.3158 44.672 97.3158 45.2693 97.4865 45.568C97.6998 45.8667 98.2332 46.1013 99.0865 46.272L100.367 46.528C100.921 46.656 101.199 46.8907 101.199 47.232C101.199 47.744 100.815 48 100.047 48H88.6545ZM109.455 47.168L115.535 21.632C115.748 20.6933 115.769 19.968 115.599 19.456C115.471 18.9013 115.087 18.624 114.447 18.624C113.679 18.624 112.825 19.2 111.887 20.352C110.991 21.4613 109.967 23.5947 108.815 26.752C108.644 27.3067 108.345 27.584 107.919 27.584C107.279 27.584 107.108 27.2 107.407 26.432C108.345 23.488 109.327 21.184 110.351 19.52C111.417 17.856 112.484 16.6827 113.551 16C114.617 15.3173 115.599 14.976 116.495 14.976C117.903 14.976 118.905 15.5093 119.503 16.576C120.1 17.6 120.121 19.3067 119.567 21.696L117.967 28.608C117.924 28.9067 117.988 29.0773 118.159 29.12C118.329 29.1627 118.479 29.056 118.607 28.8C120.271 25.344 121.871 22.6133 123.407 20.608C124.943 18.56 126.393 17.1093 127.759 16.256C129.124 15.4027 130.361 14.976 131.471 14.976C133.049 14.976 134.201 15.616 134.927 16.896C135.652 18.176 135.652 20.1387 134.927 22.784L130.063 41.344C129.764 42.5387 129.743 43.4347 129.999 44.032C130.255 44.6293 130.724 44.928 131.407 44.928C132.26 44.928 133.092 44.3733 133.903 43.264C134.756 42.112 135.631 39.9573 136.527 36.8C136.655 36.3307 136.932 36.096 137.359 36.096C137.7 36.096 137.892 36.224 137.935 36.48C138.02 36.736 138.02 37.0347 137.935 37.376C137.124 40.2773 136.249 42.56 135.311 44.224C134.372 45.8453 133.412 46.976 132.431 47.616C131.492 48.256 130.532 48.576 129.551 48.576C128.015 48.576 126.863 47.936 126.095 46.656C125.327 45.376 125.284 43.392 125.967 40.704L130.895 22.144C131.364 20.48 131.428 19.328 131.087 18.688C130.788 18.048 130.34 17.728 129.743 17.728C128.804 17.728 127.737 18.3253 126.543 19.52C125.348 20.672 124.132 22.272 122.895 24.32C121.657 26.3253 120.441 28.608 119.247 31.168C118.052 33.728 116.964 36.3947 115.983 39.168C115.044 41.9413 114.276 44.6507 113.679 47.296C113.551 47.7653 113.252 48 112.783 48H110.159C109.561 48 109.327 47.7227 109.455 47.168ZM146.862 48.576C145.454 48.576 143.96 48.3627 142.382 47.936C140.846 47.5093 139.672 46.976 138.861 46.336C138.563 46.08 138.435 45.696 138.477 45.184L139.886 36.8C139.971 36.2453 140.227 35.968 140.654 35.968C141.123 35.968 141.358 36.2667 141.358 36.864L141.486 39.936C141.571 42.368 142.147 44.16 143.214 45.312C144.323 46.4213 145.667 46.976 147.246 46.976C148.611 46.976 149.784 46.5493 150.766 45.696C151.747 44.8 152.238 43.4987 152.238 41.792C152.238 40.8107 152.088 39.9147 151.79 39.104C151.491 38.2507 151.022 37.3547 150.382 36.416C149.742 35.4347 148.867 34.2613 147.758 32.896C146.307 31.0187 145.219 29.4187 144.494 28.096C143.811 26.7307 143.47 25.3227 143.47 23.872C143.47 21.184 144.302 19.0293 145.966 17.408C147.672 15.7867 149.827 14.976 152.43 14.976C153.582 14.976 154.691 15.1467 155.758 15.488C156.867 15.8293 157.784 16.3413 158.51 17.024C158.894 17.3227 159.022 17.7067 158.894 18.176L157.102 26.752C156.974 27.3067 156.718 27.584 156.333 27.584C155.95 27.584 155.715 27.2853 155.63 26.688L155.438 23.616C155.267 21.056 154.926 19.2213 154.414 18.112C153.944 17.0027 152.942 16.448 151.406 16.448C150.04 16.448 148.931 16.9173 148.078 17.856C147.224 18.7947 146.798 19.9253 146.798 21.248C146.798 22.656 147.182 23.9573 147.95 25.152C148.718 26.304 149.763 27.776 151.086 29.568C152.835 31.872 154.008 33.7067 154.606 35.072C155.246 36.4373 155.566 37.824 155.566 39.232C155.566 41.024 155.16 42.624 154.35 44.032C153.582 45.44 152.536 46.5493 151.214 47.36C149.891 48.1707 148.44 48.576 146.862 48.576ZM171.806 9.28C170.995 9.28 170.313 9.00267 169.758 8.448C169.246 7.85066 168.99 7.14666 168.99 6.336C168.99 5.184 169.331 4.26667 170.014 3.584C170.739 2.90133 171.55 2.56 172.446 2.56C173.299 2.56 174.003 2.83733 174.558 3.392C175.155 3.904 175.454 4.58666 175.454 5.44C175.454 6.63467 175.091 7.57333 174.366 8.256C173.641 8.93866 172.787 9.28 171.806 9.28ZM166.558 48.64C165.15 48.64 164.147 48.128 163.55 47.104C162.953 46.0373 162.931 44.3093 163.486 41.92L168.222 21.632C168.435 20.6933 168.457 19.968 168.286 19.456C168.158 18.9013 167.774 18.624 167.134 18.624C166.366 18.624 165.513 19.2 164.574 20.352C163.678 21.4613 162.654 23.5947 161.502 26.752C161.331 27.3067 161.033 27.584 160.606 27.584C159.966 27.584 159.795 27.2 160.094 26.432C161.033 23.488 162.014 21.184 163.038 19.52C164.105 17.856 165.171 16.6827 166.238 16C167.305 15.3173 168.286 14.976 169.182 14.976C170.675 14.976 171.721 15.5093 172.318 16.576C172.915 17.6 172.937 19.3067 172.382 21.696L167.646 41.984C167.433 42.9227 167.39 43.6693 167.518 44.224C167.689 44.736 168.094 44.992 168.734 44.992C169.502 44.992 170.334 44.4373 171.23 43.328C172.169 42.176 173.214 40.0213 174.366 36.864C174.537 36.3093 174.835 36.032 175.262 36.032C175.902 36.032 176.073 36.416 175.774 37.184C174.878 40.0853 173.875 42.3893 172.766 44.096C171.699 45.76 170.633 46.9333 169.566 47.616C168.499 48.2987 167.497 48.64 166.558 48.64ZM182.265 61.824C178.894 61.824 176.334 61.2053 174.584 59.968C172.835 58.7307 171.96 57.2587 171.96 55.552C171.96 54.0587 172.558 52.5867 173.752 51.136C174.904 49.728 177.059 48.1067 180.217 46.272C180.686 46.016 180.942 45.7387 180.985 45.44C181.07 45.0987 180.878 44.7787 180.409 44.48C179.214 43.712 178.489 42.816 178.233 41.792C178.019 40.768 178.297 40.0427 179.065 39.616L183.929 36.8C184.355 36.5867 184.569 36.3307 184.569 36.032C184.611 35.6907 184.398 35.392 183.929 35.136C182.777 34.4533 181.902 33.4933 181.305 32.256C180.75 30.976 180.473 29.5893 180.473 28.096C180.473 25.792 181.027 23.6587 182.137 21.696C183.289 19.6907 184.803 18.0693 186.681 16.832C188.601 15.5947 190.734 14.976 193.081 14.976C194.062 14.976 194.894 15.104 195.577 15.36C196.089 15.5307 196.473 15.36 196.729 14.848C197.454 13.2693 198.371 12.032 199.481 11.136C200.633 10.1973 201.827 9.728 203.065 9.728C203.961 9.728 204.643 9.96266 205.113 10.432C205.625 10.9013 205.881 11.5413 205.881 12.352C205.881 13.1627 205.646 13.824 205.177 14.336C204.707 14.848 204.11 15.104 203.385 15.104C202.83 15.104 202.403 14.9973 202.105 14.784C201.849 14.5707 201.614 14.3573 201.401 14.144C201.187 13.9307 200.846 13.824 200.377 13.824C199.438 13.824 198.691 14.3573 198.137 15.424C197.966 15.808 197.923 16.1707 198.009 16.512C198.094 16.8107 198.265 17.1307 198.521 17.472C199.63 18.9227 200.185 20.7573 200.185 22.976C200.185 24.9813 199.737 26.9013 198.841 28.736C197.987 30.528 196.793 32.064 195.257 33.344C193.763 34.5813 192.035 35.4133 190.073 35.84C189.305 36.0107 188.601 36.224 187.961 36.48C187.363 36.6933 186.595 37.0987 185.657 37.696L183.097 39.232C182.457 39.616 182.286 40.1067 182.585 40.704C182.883 41.2587 183.715 41.792 185.081 42.304L190.585 44.352C192.974 45.2053 194.617 46.2507 195.513 47.488C196.451 48.7253 196.921 50.176 196.921 51.84C196.921 53.888 196.238 55.6587 194.873 57.152C193.55 58.6453 191.779 59.7973 189.561 60.608C187.342 61.4187 184.91 61.824 182.265 61.824ZM184.76 29.248C184.76 31.2107 185.038 32.64 185.593 33.536C186.19 34.3893 187.022 34.816 188.089 34.816C189.454 34.816 190.713 34.1973 191.865 32.96C193.059 31.68 194.019 30.0587 194.745 28.096C195.47 26.0907 195.833 24.0213 195.833 21.888C195.833 19.7547 195.555 18.304 195.001 17.536C194.446 16.7253 193.614 16.32 192.505 16.32C191.182 16.32 189.923 16.96 188.729 18.24C187.534 19.4773 186.574 21.0773 185.849 23.04C185.123 25.0027 184.76 27.072 184.76 29.248ZM182.969 60.224C184.633 60.224 186.19 59.9467 187.641 59.392C189.091 58.8373 190.265 58.048 191.161 57.024C192.099 56 192.569 54.784 192.569 53.376C192.569 51.968 192.206 50.7947 191.481 49.856C190.798 48.96 189.433 48.128 187.385 47.36L186.169 46.912C185.401 46.6133 184.633 46.5067 183.865 46.592C183.097 46.6773 182.371 46.8907 181.689 47.232C179.385 48.512 177.827 49.7067 177.017 50.816C176.206 51.9253 175.8 53.1413 175.8 54.464C175.8 56.0427 176.377 57.3867 177.529 58.496C178.681 59.648 180.494 60.224 182.969 60.224ZM222.608 48.576C221.072 48.576 219.92 47.936 219.152 46.656C218.384 45.376 218.341 43.392 219.024 40.704L223.952 22.144C224.421 20.48 224.485 19.328 224.144 18.688C223.845 18.048 223.397 17.728 222.8 17.728C221.861 17.728 220.795 18.3253 219.6 19.52C218.448 20.672 217.232 22.272 215.952 24.32C214.715 26.3253 213.499 28.608 212.304 31.168C211.152 33.6853 210.085 36.352 209.104 39.168C208.123 41.9413 207.333 44.6507 206.736 47.296C206.608 47.7653 206.309 48 205.84 48H203.152C202.555 48 202.32 47.7227 202.448 47.168L211.792 7.04C212.005 6.272 212.005 5.73866 211.792 5.44C211.621 5.14133 211.237 4.97066 210.64 4.928L208.72 4.736C208.08 4.69333 207.803 4.416 207.888 3.904C207.973 3.52 208.272 3.28533 208.784 3.2C210.32 2.944 211.685 2.64533 212.88 2.304C214.075 1.92 215.035 1.42933 215.76 0.831997C216.101 0.575998 216.421 0.447998 216.72 0.447998C217.232 0.447998 217.424 0.767998 217.296 1.408L211.024 28.608C210.981 28.9067 211.045 29.0773 211.216 29.12C211.387 29.1627 211.536 29.056 211.664 28.8C213.371 25.3013 214.992 22.5493 216.528 20.544C218.064 18.5387 219.493 17.1093 220.816 16.256C222.181 15.4027 223.419 14.976 224.528 14.976C226.107 14.976 227.259 15.616 227.984 16.896C228.709 18.176 228.709 20.1387 227.984 22.784L223.12 41.344C222.821 42.5387 222.8 43.4347 223.056 44.032C223.312 44.6293 223.781 44.928 224.464 44.928C225.317 44.928 226.149 44.3733 226.96 43.264C227.771 42.112 228.645 39.9573 229.584 36.8C229.712 36.3307 229.989 36.096 230.416 36.096C230.757 36.096 230.949 36.224 230.992 36.48C231.077 36.736 231.077 37.0347 230.992 37.376C230.181 40.2773 229.307 42.56 228.368 44.224C227.429 45.8453 226.469 46.976 225.488 47.616C224.549 48.256 223.589 48.576 222.608 48.576ZM238.966 48.576C237.515 48.576 236.384 48 235.574 46.848C234.763 45.696 234.635 43.84 235.19 41.28L240.502 18.112C240.63 17.472 240.374 17.152 239.734 17.152H237.302C236.704 17.152 236.406 16.8747 236.406 16.32C236.406 16.0213 236.512 15.7867 236.726 15.616C236.939 15.4453 237.195 15.36 237.494 15.36H239.798C240.779 15.36 241.355 14.912 241.526 14.016L243.062 7.168C243.19 6.69866 243.488 6.464 243.958 6.464H246.582C247.179 6.464 247.414 6.74133 247.286 7.296L245.686 14.4C245.558 15.04 245.814 15.36 246.454 15.36H250.102C250.827 15.36 251.19 15.6373 251.19 16.192C251.19 16.832 250.742 17.152 249.846 17.152H246.39C245.451 17.152 244.875 17.6 244.662 18.496L239.286 41.92C239.072 42.8587 239.094 43.6053 239.35 44.16C239.648 44.672 240.139 44.928 240.822 44.928C241.803 44.928 242.699 44.3733 243.51 43.264C244.363 42.1547 245.259 40.0427 246.198 36.928C246.368 36.3733 246.646 36.096 247.03 36.096C247.328 36.096 247.52 36.224 247.606 36.48C247.691 36.736 247.627 37.2053 247.414 37.888C246.603 40.7893 245.707 43.008 244.726 44.544C243.787 46.08 242.827 47.1467 241.845 47.744C240.864 48.2987 239.904 48.576 238.966 48.576ZM275.603 48.576C273.811 48.576 272.339 47.936 271.187 46.656C270.078 45.376 269.544 43.584 269.587 41.28L269.651 34.176C269.694 31.872 269.566 30.1227 269.267 28.928C268.968 27.7333 268.414 26.9227 267.603 26.496C266.792 26.0693 265.598 25.856 264.019 25.856C263.08 25.856 262.376 26.0267 261.907 26.368C261.48 26.7093 261.182 27.2427 261.011 27.968L257.299 43.52C257.086 44.416 257.107 45.0347 257.363 45.376C257.619 45.7173 258.28 45.9733 259.347 46.144L262.163 46.528C262.76 46.5707 263.059 46.8053 263.059 47.232C263.059 47.744 262.718 48 262.035 48H248.467C247.87 48 247.571 47.7867 247.571 47.36C247.571 46.8907 247.998 46.592 248.851 46.464L250.131 46.272C251.07 46.144 251.71 45.9307 252.051 45.632C252.435 45.2907 252.712 44.672 252.883 43.776L261.587 6.144C261.8 5.248 261.8 4.65067 261.587 4.352C261.374 4.05333 260.84 3.81867 259.987 3.648L258.707 3.392C258.152 3.264 257.875 3.02933 257.875 2.688C257.875 2.176 258.259 1.92 259.027 1.92H272.019C274.536 1.92 276.627 2.368 278.291 3.264C279.955 4.16 281.192 5.35467 282.003 6.848C282.856 8.34133 283.283 9.984 283.283 11.776C283.283 14.0373 282.707 16.0853 281.555 17.92C280.403 19.7547 278.888 21.312 277.011 22.592C275.176 23.8293 273.192 24.7467 271.059 25.344C270.803 25.3867 270.654 25.5147 270.611 25.728C270.611 25.8987 270.739 26.048 270.995 26.176C272.19 26.816 273 27.712 273.427 28.864C273.854 30.016 274.067 31.552 274.067 33.472V40C274.067 42.3467 274.323 43.968 274.835 44.864C275.347 45.7173 276.051 46.144 276.947 46.144C277.288 46.144 277.587 46.1013 277.843 46.016C278.099 45.888 278.44 45.6747 278.867 45.376C279.208 45.0773 279.507 44.992 279.763 45.12C280.062 45.248 280.211 45.4827 280.211 45.824C280.211 46.4213 279.763 47.04 278.867 47.68C277.971 48.2773 276.883 48.576 275.603 48.576ZM266.259 24.256C268.392 24.256 270.398 23.68 272.275 22.528C274.152 21.376 275.667 19.8187 276.819 17.856C278.014 15.8933 278.611 13.696 278.611 11.264C278.611 8.87466 278.014 6.99733 276.819 5.632C275.667 4.224 273.64 3.52 270.739 3.52C268.008 3.52 266.43 4.37333 266.003 6.08L262.611 20.736C262.056 23.0827 263.272 24.256 266.259 24.256ZM291.294 48.576C288.648 48.576 286.558 47.488 285.022 45.312C283.486 43.0933 282.718 40.1067 282.718 36.352C282.718 33.5787 283.166 30.912 284.062 28.352C284.958 25.792 286.131 23.5093 287.582 21.504C289.075 19.4987 290.718 17.92 292.51 16.768C294.344 15.5733 296.179 14.976 298.014 14.976C300.659 14.976 302.75 16.064 304.286 18.24C305.822 20.416 306.59 23.4027 306.59 27.2C306.59 29.9733 306.142 32.64 305.246 35.2C304.35 37.76 303.155 40.0427 301.662 42.048C300.211 44.0533 298.568 45.6533 296.734 46.848C294.942 48 293.128 48.576 291.294 48.576ZM291.166 47.04C292.531 47.04 293.854 46.3787 295.134 45.056C296.456 43.7333 297.651 41.984 298.718 39.808C299.784 37.632 300.638 35.2213 301.278 32.576C301.918 29.888 302.238 27.2 302.238 24.512C302.238 19.1787 300.851 16.512 298.078 16.512C296.755 16.512 295.432 17.1733 294.11 18.496C292.787 19.776 291.592 21.504 290.526 23.68C289.502 25.856 288.67 28.288 288.03 30.976C287.39 33.6213 287.07 36.288 287.07 38.976C287.07 44.352 288.435 47.04 291.166 47.04ZM317.794 48.576C315.148 48.576 313.058 47.488 311.522 45.312C309.986 43.0933 309.218 40.1067 309.218 36.352C309.218 33.5787 309.666 30.912 310.562 28.352C311.458 25.792 312.631 23.5093 314.082 21.504C315.575 19.4987 317.218 17.92 319.01 16.768C320.844 15.5733 322.679 14.976 324.514 14.976C327.159 14.976 329.25 16.064 330.786 18.24C332.322 20.416 333.09 23.4027 333.09 27.2C333.09 29.9733 332.642 32.64 331.746 35.2C330.85 37.76 329.655 40.0427 328.162 42.048C326.711 44.0533 325.068 45.6533 323.234 46.848C321.442 48 319.628 48.576 317.794 48.576ZM317.666 47.04C319.031 47.04 320.354 46.3787 321.634 45.056C322.956 43.7333 324.151 41.984 325.218 39.808C326.284 37.632 327.138 35.2213 327.778 32.576C328.418 29.888 328.738 27.2 328.738 24.512C328.738 19.1787 327.351 16.512 324.578 16.512C323.255 16.512 321.932 17.1733 320.61 18.496C319.287 19.776 318.092 21.504 317.026 23.68C316.002 25.856 315.17 28.288 314.53 30.976C313.89 33.6213 313.57 36.288 313.57 38.976C313.57 44.352 314.935 47.04 317.666 47.04ZM372.262 48.576C370.726 48.576 369.574 47.936 368.806 46.656C368.038 45.376 367.995 43.392 368.678 40.704L373.606 22.144C374.075 20.48 374.139 19.328 373.798 18.688C373.499 18.048 373.051 17.728 372.454 17.728C371.6 17.728 370.619 18.3253 369.51 19.52C368.4 20.672 367.227 22.2507 365.99 24.256C364.795 26.2613 363.622 28.544 362.47 31.104C361.318 33.664 360.251 36.3307 359.27 39.104C358.288 41.8773 357.478 44.608 356.838 47.296C356.71 47.7653 356.411 48 355.942 48H353.446C352.848 48 352.614 47.7227 352.742 47.168L358.63 22.144C359.014 20.48 359.056 19.328 358.758 18.688C358.502 18.048 358.075 17.728 357.478 17.728C356.667 17.728 355.707 18.3253 354.598 19.52C353.488 20.672 352.336 22.2507 351.142 24.256C349.947 26.2613 348.774 28.544 347.622 31.104C346.47 33.664 345.403 36.3307 344.422 39.104C343.44 41.8773 342.651 44.608 342.054 47.296C341.926 47.7653 341.627 48 341.158 48H338.534C337.936 48 337.702 47.7227 337.83 47.168L343.91 21.632C344.123 20.6933 344.144 19.968 343.974 19.456C343.846 18.9013 343.462 18.624 342.822 18.624C342.054 18.624 341.2 19.2 340.262 20.352C339.366 21.4613 338.342 23.5947 337.19 26.752C337.019 27.3067 336.72 27.584 336.294 27.584C335.654 27.584 335.483 27.2 335.782 26.432C336.72 23.488 337.702 21.184 338.726 19.52C339.792 17.856 340.859 16.6827 341.926 16C342.992 15.3173 343.974 14.976 344.87 14.976C346.278 14.976 347.28 15.5093 347.878 16.576C348.475 17.6 348.496 19.3067 347.942 21.696L346.342 28.608C346.299 28.9067 346.363 29.0773 346.534 29.12C346.704 29.1627 346.854 29.056 346.982 28.8C349.456 23.68 351.696 20.096 353.702 18.048C355.707 16 357.542 14.976 359.206 14.976C360.784 14.976 361.894 15.616 362.534 16.896C363.216 18.176 363.259 20.1387 362.662 22.784L361.318 28.608C361.275 28.9067 361.339 29.0773 361.51 29.12C361.68 29.1627 361.83 29.056 361.958 28.8C363.579 25.344 365.094 22.6133 366.502 20.608C367.952 18.56 369.318 17.1093 370.597 16.256C371.878 15.4027 373.072 14.976 374.182 14.976C375.76 14.976 376.912 15.616 377.638 16.896C378.363 18.176 378.363 20.1387 377.638 22.784L372.774 41.344C372.475 42.5387 372.454 43.4347 372.71 44.032C372.966 44.6293 373.435 44.928 374.118 44.928C374.971 44.928 375.803 44.3733 376.614 43.264C377.467 42.112 378.342 39.9573 379.238 36.8C379.366 36.3307 379.643 36.096 380.07 36.096C380.411 36.096 380.603 36.224 380.646 36.48C380.731 36.736 380.731 37.0347 380.646 37.376C379.835 40.2773 378.96 42.56 378.022 44.224C377.083 45.8453 376.123 46.976 375.142 47.616C374.203 48.256 373.243 48.576 372.262 48.576Z" fill="#FFE383"/>
</svg>
