<svg width="120" height="32" viewBox="0 0 120 32" fill="none" xmlns="http://www.w3.org/2000/svg">
<g clip-path="url(#clip0_1_2)">
<path d="M24.416 24H19.296V12.992C19.296 12.16 18.848 11.712 17.856 11.712C16.768 11.712 15.84 12.224 15.488 12.544V24H10.368V12.992C10.368 12.16 9.92 11.712 8.928 11.712C7.84 11.712 6.912 12.224 6.56 12.544V24H1.44V8H4.512L5.152 9.152C6.304 8.16 8.512 7.552 10.176 7.552C12.32 7.552 13.376 8.128 13.888 8.864C15.04 8 17.152 7.552 19.072 7.552C23.232 7.552 24.416 10.048 24.416 12.928V24ZM35.3835 13.824V12.8C35.3835 12.064 34.8715 11.68 33.4955 11.68C31.4795 11.68 29.1435 12.288 27.7355 12.896V8.608C28.8235 8.128 31.2235 7.552 33.4955 7.552C39.2555 7.552 40.3435 10.016 40.3435 13.6V24H37.2715L36.5675 22.784C35.4155 23.808 33.7835 24.448 31.8635 24.448C27.7995 24.448 26.4235 21.76 26.4235 19.36C26.4235 15.04 29.5915 14.4 32.4715 14.112L35.3835 13.824ZM35.3835 16.608L33.2395 16.896C31.7995 17.088 31.2235 17.792 31.2235 19.04C31.2235 20.224 31.9915 20.928 33.0795 20.928C34.0075 20.928 34.8715 20.672 35.3835 20.16V16.608ZM53.177 20.128V24.128C52.473 24.32 51.257 24.448 50.553 24.448C46.073 24.448 44.377 22.56 44.377 18.784V12.256H41.785V8.864L44.377 8.16V4.864L49.497 3.488V8H53.465V12.256H49.497V18.368C49.497 19.616 49.977 20.32 51.609 20.32C52.281 20.32 52.921 20.192 53.177 20.128ZM69.2938 17.696H59.9498C59.8218 19.776 60.9098 20.384 63.4058 20.384C65.8058 20.384 67.5978 19.904 68.7498 19.328V23.328C66.8938 24.096 64.6538 24.448 62.7338 24.448C57.4538 24.448 54.8938 21.76 54.8938 16C54.8938 10.24 57.4218 7.552 62.3818 7.552C69.2298 7.552 69.7098 12.672 69.2938 17.696ZM62.4458 11.392C60.7178 11.392 59.9498 12.544 59.9498 14.56H64.4938C64.7818 12.8 64.3978 11.392 62.4458 11.392ZM81.895 7.776V11.904C81.639 11.84 80.999 11.776 80.327 11.776C78.759 11.776 77.351 12.32 76.935 12.704V24H71.815V8H74.887L75.527 9.152C76.327 8.384 78.055 7.552 80.455 7.552C81.095 7.552 81.671 7.68 81.895 7.776ZM90.2188 20V24.128C90.2188 24.128 89.5468 24.256 88.7468 24.256C85.9948 24.256 83.8188 22.848 83.8188 19.744V8H88.9068V19.04C88.9068 19.648 89.1948 20 90.2188 20ZM83.3388 3.36C83.3388 1.664 84.6508 0.32 86.3788 0.32C88.0748 0.32 89.4188 1.664 89.4188 3.36C89.4188 5.088 88.0748 6.4 86.3788 6.4C84.6508 6.4 83.3388 5.088 83.3388 3.36ZM99.3513 24.448C93.4313 24.448 91.8313 20.992 91.8313 16C91.8313 11.008 93.4313 7.552 99.3513 7.552C105.271 7.552 106.871 11.008 106.871 16C106.871 20.992 105.271 24.448 99.3513 24.448ZM99.3513 11.648C97.5913 11.648 96.9513 12.8 96.9513 16C96.9513 19.2 97.5913 20.352 99.3513 20.352C101.111 20.352 101.751 19.2 101.751 16C101.751 12.8 101.111 11.648 99.3513 11.648ZM108.456 21.408C108.456 19.712 109.768 18.368 111.496 18.368C113.192 18.368 114.536 19.712 114.536 21.408C114.536 23.136 113.192 24.448 111.496 24.448C109.768 24.448 108.456 23.136 108.456 21.408Z" fill="black"/>
</g>
<defs>
<clipPath id="clip0_1_2">
<rect width="120" height="32" fill="white"/>
</clipPath>
</defs>
</svg>
