<svg width="256" height="256" viewBox="0 0 256 256" fill="none" xmlns="http://www.w3.org/2000/svg">
<rect width="256" height="256" rx="40" fill="#FFCC1D"/>
<path d="M65.592 164.864C62.904 164.864 60.696 163.904 58.968 161.984C57.304 160.064 56.504 157.376 56.568 153.92L56.664 143.264C56.728 139.808 56.536 137.184 56.088 135.392C55.64 133.6 54.808 132.384 53.592 131.744C52.376 131.104 50.584 130.784 48.216 130.784C46.808 130.784 45.752 131.04 45.048 131.552C44.408 132.064 43.96 132.864 43.704 133.952L38.136 157.28C37.816 158.624 37.848 159.552 38.232 160.064C38.616 160.576 39.608 160.96 41.208 161.216L45.432 161.792C46.328 161.856 46.776 162.208 46.776 162.848C46.776 163.616 46.264 164 45.24 164H24.888C23.992 164 23.544 163.68 23.544 163.04C23.544 162.336 24.184 161.888 25.464 161.696L27.384 161.408C28.792 161.216 29.752 160.896 30.264 160.448C30.84 159.936 31.256 159.008 31.512 157.664L44.568 101.216C44.888 99.872 44.888 98.976 44.568 98.528C44.248 98.08 43.448 97.728 42.168 97.472L40.248 97.088C39.416 96.896 39 96.544 39 96.032C39 95.264 39.576 94.88 40.728 94.88H60.216C63.992 94.88 67.128 95.552 69.624 96.896C72.12 98.24 73.976 100.032 75.192 102.272C76.472 104.512 77.112 106.976 77.112 109.664C77.112 113.056 76.248 116.128 74.52 118.88C72.792 121.632 70.52 123.968 67.704 125.888C64.952 127.744 61.976 129.12 58.776 130.016C58.392 130.08 58.168 130.272 58.104 130.592C58.104 130.848 58.296 131.072 58.68 131.264C60.472 132.224 61.688 133.568 62.328 135.296C62.968 137.024 63.288 139.328 63.288 142.208V152C63.288 155.52 63.672 157.952 64.44 159.296C65.208 160.576 66.264 161.216 67.608 161.216C68.12 161.216 68.568 161.152 68.952 161.024C69.336 160.832 69.848 160.512 70.488 160.064C71 159.616 71.448 159.488 71.832 159.68C72.28 159.872 72.504 160.224 72.504 160.736C72.504 161.632 71.832 162.56 70.488 163.52C69.144 164.416 67.512 164.864 65.592 164.864ZM51.576 128.384C54.776 128.384 57.784 127.52 60.6 125.792C63.416 124.064 65.688 121.728 67.416 118.784C69.208 115.84 70.104 112.544 70.104 108.896C70.104 105.312 69.208 102.496 67.416 100.448C65.688 98.336 62.648 97.28 58.296 97.28C54.2 97.28 51.832 98.56 51.192 101.12L46.104 123.104C45.272 126.624 47.096 128.384 51.576 128.384ZM89.1278 164.864C85.1598 164.864 82.0238 163.232 79.7198 159.968C77.4158 156.64 76.2638 152.16 76.2638 146.528C76.2638 142.368 76.9358 138.368 78.2798 134.528C79.6238 130.688 81.3838 127.264 83.5598 124.256C85.7998 121.248 88.2638 118.88 90.9518 117.152C93.7038 115.36 96.4558 114.464 99.2078 114.464C103.176 114.464 106.312 116.096 108.616 119.36C110.92 122.624 112.072 127.104 112.072 132.8C112.072 136.96 111.4 140.96 110.056 144.8C108.712 148.64 106.92 152.064 104.68 155.072C102.504 158.08 100.04 160.48 97.2878 162.272C94.5998 164 91.8798 164.864 89.1278 164.864ZM88.9358 162.56C90.9838 162.56 92.9678 161.568 94.8878 159.584C96.8718 157.6 98.6638 154.976 100.264 151.712C101.864 148.448 103.144 144.832 104.104 140.864C105.064 136.832 105.544 132.8 105.544 128.768C105.544 120.768 103.464 116.768 99.3038 116.768C97.3198 116.768 95.3358 117.76 93.3518 119.744C91.3678 121.664 89.5758 124.256 87.9758 127.52C86.4398 130.784 85.1918 134.432 84.2318 138.464C83.2718 142.432 82.7918 146.432 82.7918 150.464C82.7918 158.528 84.8398 162.56 88.9358 162.56ZM128.878 164.864C124.91 164.864 121.774 163.232 119.47 159.968C117.166 156.64 116.014 152.16 116.014 146.528C116.014 142.368 116.686 138.368 118.03 134.528C119.374 130.688 121.134 127.264 123.31 124.256C125.55 121.248 128.014 118.88 130.702 117.152C133.454 115.36 136.206 114.464 138.958 114.464C142.926 114.464 146.062 116.096 148.366 119.36C150.67 122.624 151.822 127.104 151.822 132.8C151.822 136.96 151.15 140.96 149.806 144.8C148.462 148.64 146.67 152.064 144.43 155.072C142.254 158.08 139.79 160.48 137.038 162.272C134.35 164 131.63 164.864 128.878 164.864ZM128.686 162.56C130.734 162.56 132.718 161.568 134.638 159.584C136.622 157.6 138.414 154.976 140.014 151.712C141.614 148.448 142.894 144.832 143.854 140.864C144.814 136.832 145.294 132.8 145.294 128.768C145.294 120.768 143.214 116.768 139.054 116.768C137.07 116.768 135.086 117.76 133.102 119.744C131.118 121.664 129.326 124.256 127.726 127.52C126.19 130.784 124.942 134.432 123.982 138.464C123.022 142.432 122.542 146.432 122.542 150.464C122.542 158.528 124.59 162.56 128.686 162.56ZM210.58 164.864C208.276 164.864 206.548 163.904 205.396 161.984C204.244 160.064 204.18 157.088 205.204 153.056L212.596 125.216C213.3 122.72 213.396 120.992 212.884 120.032C212.436 119.072 211.764 118.592 210.868 118.592C209.588 118.592 208.116 119.488 206.452 121.28C204.788 123.008 203.028 125.376 201.172 128.384C199.38 131.392 197.62 134.816 195.892 138.656C194.164 142.496 192.564 146.496 191.092 150.656C189.62 154.816 188.404 158.912 187.444 162.944C187.252 163.648 186.804 164 186.1 164H182.356C181.46 164 181.108 163.584 181.3 162.752L190.132 125.216C190.708 122.72 190.772 120.992 190.324 120.032C189.94 119.072 189.3 118.592 188.404 118.592C187.188 118.592 185.748 119.488 184.084 121.28C182.42 123.008 180.692 125.376 178.9 128.384C177.108 131.392 175.348 134.816 173.62 138.656C171.892 142.496 170.292 146.496 168.82 150.656C167.348 154.816 166.164 158.912 165.268 162.944C165.076 163.648 164.628 164 163.924 164H159.988C159.092 164 158.74 163.584 158.932 162.752L168.052 124.448C168.372 123.04 168.404 121.952 168.148 121.184C167.956 120.352 167.38 119.936 166.42 119.936C165.268 119.936 163.988 120.8 162.58 122.528C161.236 124.192 159.7 127.392 157.972 132.128C157.716 132.96 157.268 133.376 156.628 133.376C155.668 133.376 155.412 132.8 155.86 131.648C157.268 127.232 158.74 123.776 160.276 121.28C161.876 118.784 163.476 117.024 165.076 116C166.676 114.976 168.148 114.464 169.492 114.464C171.604 114.464 173.108 115.264 174.004 116.864C174.9 118.4 174.932 120.96 174.1 124.544L171.7 134.912C171.636 135.36 171.732 135.616 171.988 135.68C172.244 135.744 172.468 135.584 172.66 135.2C176.372 127.52 179.732 122.144 182.74 119.072C185.748 116 188.5 114.464 190.996 114.464C193.364 114.464 195.028 115.424 195.988 117.344C197.012 119.264 197.076 122.208 196.18 126.176L194.164 134.912C194.1 135.36 194.196 135.616 194.452 135.68C194.708 135.744 194.932 135.584 195.124 135.2C197.556 130.016 199.828 125.92 201.94 122.912C204.116 119.84 206.164 117.664 208.084 116.384C210.004 115.104 211.796 114.464 213.46 114.464C215.828 114.464 217.556 115.424 218.644 117.344C219.732 119.264 219.732 122.208 218.644 126.176L211.348 154.016C210.9 155.808 210.868 157.152 211.252 158.048C211.636 158.944 212.34 159.392 213.364 159.392C214.644 159.392 215.892 158.56 217.108 156.896C218.388 155.168 219.7 151.936 221.044 147.2C221.236 146.496 221.652 146.144 222.292 146.144C222.804 146.144 223.092 146.336 223.156 146.72C223.284 147.104 223.284 147.552 223.156 148.064C221.94 152.416 220.628 155.84 219.22 158.336C217.812 160.768 216.372 162.464 214.9 163.424C213.492 164.384 212.052 164.864 210.58 164.864Z" fill="black"/>
</svg>
