<svg width="272" height="36" viewBox="0 0 272 36" fill="none" xmlns="http://www.w3.org/2000/svg">
<path d="M25.848 26.6399H20.088V14.2559C20.088 13.3199 19.584 12.8159 18.468 12.8159C17.244 12.8159 16.2 13.3919 15.804 13.7519V26.6399H10.044V14.2559C10.044 13.3199 9.54 12.8159 8.424 12.8159C7.2 12.8159 6.156 13.3919 5.76 13.7519V26.6399H-2.68221e-06V8.63989H3.456L4.176 9.93589C5.472 8.81989 7.956 8.13589 9.828 8.13589C12.24 8.13589 13.428 8.78389 14.004 9.61189C15.3 8.63989 17.676 8.13589 19.836 8.13589C24.516 8.13589 25.848 10.9439 25.848 14.1839V26.6399ZM38.1864 15.1919V14.0399C38.1864 13.2119 37.6104 12.7799 36.0624 12.7799C33.7944 12.7799 31.1664 13.4639 29.5824 14.1479V9.32389C30.8064 8.78389 33.5064 8.13589 36.0624 8.13589C42.5424 8.13589 43.7664 10.9079 43.7664 14.9399V26.6399H40.3104L39.5184 25.2719C38.2224 26.4239 36.3864 27.1439 34.2264 27.1439C29.6544 27.1439 28.1064 24.1199 28.1064 21.4199C28.1064 16.5599 31.6704 15.8399 34.9104 15.5159L38.1864 15.1919ZM38.1864 18.3239L35.7744 18.6479C34.1544 18.8639 33.5064 19.6559 33.5064 21.0599C33.5064 22.3919 34.3704 23.1839 35.5944 23.1839C36.6384 23.1839 37.6104 22.8959 38.1864 22.3199V18.3239ZM58.2041 22.2839V26.7839C57.4121 26.9999 56.0441 27.1439 55.2521 27.1439C50.2121 27.1439 48.3041 25.0199 48.3041 20.7719V13.4279H45.3881V9.61189L48.3041 8.81989V5.11189L54.0641 3.56389V8.63989H58.5281V13.4279H54.0641V20.3039C54.0641 21.7079 54.6041 22.4999 56.4401 22.4999C57.1961 22.4999 57.9161 22.3559 58.2041 22.2839ZM76.3355 19.5479H65.8235C65.6795 21.8879 66.9035 22.5719 69.7115 22.5719C72.4115 22.5719 74.4275 22.0319 75.7235 21.3839V25.8839C73.6355 26.7479 71.1155 27.1439 68.9555 27.1439C63.0155 27.1439 60.1355 24.1199 60.1355 17.6399C60.1355 11.1599 62.9795 8.13589 68.5595 8.13589C76.2635 8.13589 76.8035 13.8959 76.3355 19.5479ZM68.6315 12.4559C66.6875 12.4559 65.8235 13.7519 65.8235 16.0199H70.9355C71.2595 14.0399 70.8275 12.4559 68.6315 12.4559ZM90.5119 8.38789V13.0319C90.2239 12.9599 89.5039 12.8879 88.7479 12.8879C86.9839 12.8879 85.3999 13.4999 84.9319 13.9319V26.6399H79.1719V8.63989H82.6279L83.3479 9.93589C84.2479 9.07189 86.1919 8.13589 88.8919 8.13589C89.6119 8.13589 90.2599 8.27989 90.5119 8.38789ZM99.8761 22.1399V26.7839C99.8761 26.7839 99.1201 26.9279 98.2201 26.9279C95.1241 26.9279 92.6761 25.3439 92.6761 21.8519V8.63989H98.4001V21.0599C98.4001 21.7439 98.7241 22.1399 99.8761 22.1399ZM92.1361 3.41989C92.1361 1.51189 93.6121 -0.000107765 95.5561 -0.000107765C97.4641 -0.000107765 98.9761 1.51189 98.9761 3.41989C98.9761 5.36389 97.4641 6.83989 95.5561 6.83989C93.6121 6.83989 92.1361 5.36389 92.1361 3.41989ZM110.15 27.1439C103.49 27.1439 101.69 23.2559 101.69 17.6399C101.69 12.0239 103.49 8.13589 110.15 8.13589C116.81 8.13589 118.61 12.0239 118.61 17.6399C118.61 23.2559 116.81 27.1439 110.15 27.1439ZM110.15 12.7439C108.17 12.7439 107.45 14.0399 107.45 17.6399C107.45 21.2399 108.17 22.5359 110.15 22.5359C112.13 22.5359 112.85 21.2399 112.85 17.6399C112.85 14.0399 112.13 12.7439 110.15 12.7439ZM120.393 23.7239C120.393 21.8159 121.869 20.3039 123.813 20.3039C125.721 20.3039 127.233 21.8159 127.233 23.7239C127.233 25.6679 125.721 27.1439 123.813 27.1439C121.869 27.1439 120.393 25.6679 120.393 23.7239ZM145.843 27.1799C143.911 27.1799 142.273 26.7419 140.929 25.8659C139.585 24.9899 138.559 23.7779 137.851 22.2299C137.143 20.6819 136.789 18.8999 136.789 16.8839C136.789 14.8559 137.149 13.0739 137.869 11.5379C138.589 9.98989 139.621 8.78989 140.965 7.93789C142.321 7.08589 143.947 6.65989 145.843 6.65989C147.775 6.65989 149.413 7.09789 150.757 7.97389C152.113 8.83789 153.139 10.0379 153.835 11.5739C154.543 13.1099 154.897 14.8799 154.897 16.8839C154.897 18.9359 154.543 20.7359 153.835 22.2839C153.127 23.8199 152.095 25.0199 150.739 25.8839C149.383 26.7479 147.751 27.1799 145.843 27.1799ZM145.843 25.1639C148.135 25.1639 149.845 24.3959 150.973 22.8599C152.113 21.3239 152.683 19.3319 152.683 16.8839C152.683 14.3879 152.113 12.3959 150.973 10.9079C149.833 9.41989 148.123 8.67589 145.843 8.67589C144.295 8.67589 143.017 9.02989 142.009 9.73789C141.001 10.4339 140.245 11.3999 139.741 12.6359C139.249 13.8599 139.003 15.2759 139.003 16.8839C139.003 19.3799 139.579 21.3839 140.731 22.8959C141.895 24.4079 143.599 25.1639 145.843 25.1639ZM158.857 26.6399V7.19989H160.747V11.8619L160.279 11.2499C160.495 10.6979 160.765 10.1879 161.089 9.71989C161.425 9.23989 161.767 8.84989 162.115 8.54989C162.631 8.06989 163.237 7.70989 163.933 7.46989C164.629 7.21789 165.331 7.07389 166.039 7.03789C166.747 6.98989 167.389 7.04389 167.965 7.19989V9.16189C167.197 8.98189 166.381 8.94589 165.517 9.05389C164.653 9.16189 163.843 9.53389 163.087 10.1699C162.427 10.7459 161.947 11.4179 161.647 12.1859C161.347 12.9419 161.155 13.7399 161.071 14.5799C160.987 15.4079 160.945 16.2179 160.945 17.0099V26.6399H158.857ZM171.733 3.27589V0.629892H173.803V3.27589H171.733ZM171.733 26.6399V7.19989H173.803V26.6399H171.733ZM186.772 35.8199C185.812 35.8199 184.852 35.6759 183.892 35.3879C182.944 35.1119 182.056 34.6559 181.228 34.0199C180.4 33.3959 179.698 32.5619 179.122 31.5179L180.994 30.4019C181.582 31.6019 182.416 32.4599 183.496 32.9759C184.576 33.4919 185.674 33.7499 186.79 33.7499C188.362 33.7499 189.604 33.4559 190.516 32.8679C191.44 32.2919 192.1 31.4219 192.496 30.2579C192.892 29.1059 193.09 27.6719 193.09 25.9559V20.8619H193.306V7.19989H195.196V25.9559C195.196 26.5319 195.184 27.0839 195.16 27.6119C195.136 28.1399 195.082 28.6679 194.998 29.1959C194.782 30.6959 194.338 31.9319 193.666 32.9039C192.994 33.8879 192.082 34.6199 190.93 35.0999C189.79 35.5799 188.404 35.8199 186.772 35.8199ZM186.682 27.1799C184.846 27.1799 183.292 26.7299 182.02 25.8299C180.76 24.9179 179.794 23.6879 179.122 22.1399C178.462 20.5799 178.132 18.8279 178.132 16.8839C178.132 14.9639 178.462 13.2299 179.122 11.6819C179.782 10.1339 180.73 8.90989 181.966 8.00989C183.214 7.10989 184.72 6.65989 186.484 6.65989C188.296 6.65989 189.826 7.10389 191.074 7.99189C192.322 8.87989 193.264 10.0979 193.9 11.6459C194.536 13.1819 194.854 14.9279 194.854 16.8839C194.854 18.8279 194.536 20.5739 193.9 22.1219C193.264 23.6699 192.34 24.8999 191.128 25.8119C189.916 26.7239 188.434 27.1799 186.682 27.1799ZM186.808 25.1999C188.26 25.1999 189.466 24.8399 190.426 24.1199C191.398 23.3879 192.118 22.3979 192.586 21.1499C193.066 19.8899 193.306 18.4679 193.306 16.8839C193.306 15.2879 193.066 13.8659 192.586 12.6179C192.106 11.3699 191.386 10.3979 190.426 9.70189C189.466 8.99389 188.272 8.63989 186.844 8.63989C185.368 8.63989 184.15 9.00589 183.19 9.73789C182.23 10.4579 181.516 11.4419 181.048 12.6899C180.58 13.9259 180.346 15.3239 180.346 16.8839C180.346 18.4559 180.586 19.8719 181.066 21.1319C181.558 22.3799 182.278 23.3699 183.226 24.1019C184.186 24.8339 185.38 25.1999 186.808 25.1999ZM200.596 3.27589V0.629892H202.666V3.27589H200.596ZM200.596 26.6399V7.19989H202.666V26.6399H200.596ZM222.314 26.6399V16.5239C222.314 15.2999 222.188 14.2079 221.936 13.2479C221.696 12.2879 221.324 11.4719 220.82 10.7999C220.328 10.1279 219.704 9.61789 218.948 9.26989C218.204 8.92189 217.322 8.74789 216.302 8.74789C215.246 8.74789 214.328 8.93389 213.548 9.30589C212.78 9.66589 212.144 10.1759 211.64 10.8359C211.148 11.4959 210.776 12.2819 210.524 13.1939C210.284 14.0939 210.164 15.0779 210.164 16.1459L208.526 15.9479C208.526 13.8479 208.88 12.1199 209.588 10.7639C210.308 9.39589 211.274 8.38789 212.486 7.73989C213.698 7.07989 215.06 6.74989 216.572 6.74989C217.64 6.74989 218.594 6.90589 219.434 7.21789C220.286 7.52989 221.024 7.97389 221.648 8.54989C222.272 9.11389 222.788 9.78589 223.196 10.5659C223.604 11.3339 223.904 12.1799 224.096 13.1039C224.3 14.0279 224.402 14.9939 224.402 16.0019V26.6399H222.314ZM208.076 26.6399V7.19989H209.966V11.5739H210.164V26.6399H208.076ZM234.68 27.1799C233.18 27.1799 231.932 26.9159 230.936 26.3879C229.952 25.8599 229.214 25.1639 228.722 24.2999C228.23 23.4239 227.984 22.4759 227.984 21.4559C227.984 20.3519 228.212 19.4279 228.668 18.6839C229.136 17.9399 229.754 17.3399 230.522 16.8839C231.302 16.4279 232.16 16.0859 233.096 15.8579C234.164 15.6179 235.316 15.4139 236.552 15.2459C237.788 15.0659 238.964 14.9099 240.08 14.7779C241.208 14.6459 242.126 14.5319 242.834 14.4359L242.078 14.8859C242.126 12.7859 241.73 11.2259 240.89 10.2059C240.062 9.17389 238.598 8.65789 236.498 8.65789C235.022 8.65789 233.804 8.99389 232.844 9.66589C231.896 10.3259 231.23 11.3519 230.846 12.7439L228.722 12.1499C229.166 10.3859 230.06 9.02989 231.404 8.08189C232.748 7.13389 234.47 6.65989 236.57 6.65989C238.358 6.65989 239.858 7.00789 241.07 7.70389C242.294 8.39989 243.146 9.37789 243.626 10.6379C243.83 11.1539 243.968 11.7599 244.04 12.4559C244.112 13.1399 244.148 13.8299 244.148 14.5259V26.6399H242.258V21.5279L242.96 21.7079C242.372 23.4599 241.346 24.8099 239.882 25.7579C238.418 26.7059 236.684 27.1799 234.68 27.1799ZM234.788 25.2719C236.108 25.2719 237.266 25.0379 238.262 24.5699C239.258 24.0899 240.062 23.4239 240.674 22.5719C241.298 21.7079 241.694 20.6939 241.862 19.5299C241.982 18.8819 242.048 18.1799 242.06 17.4239C242.072 16.6679 242.078 16.1099 242.078 15.7499L242.978 16.3259C242.198 16.4219 241.262 16.5239 240.17 16.6319C239.09 16.7399 237.986 16.8719 236.858 17.0279C235.73 17.1839 234.71 17.3819 233.798 17.6219C233.234 17.7779 232.664 18.0059 232.088 18.3059C231.524 18.5939 231.05 18.9959 230.666 19.5119C230.294 20.0279 230.108 20.6819 230.108 21.4739C230.108 22.0619 230.252 22.6499 230.54 23.2379C230.84 23.8259 231.332 24.3119 232.016 24.6959C232.7 25.0799 233.624 25.2719 234.788 25.2719ZM249.182 26.6399V0.179892H251.252V26.6399H249.182ZM263.844 27.1439C261.6 27.1439 259.746 26.6699 258.282 25.7219C256.83 24.7739 255.93 23.4539 255.582 21.7619L257.706 21.4019C258.006 22.5539 258.714 23.4719 259.83 24.1559C260.946 24.8399 262.314 25.1819 263.934 25.1819C265.542 25.1819 266.82 24.8399 267.768 24.1559C268.716 23.4719 269.19 22.5359 269.19 21.3479C269.19 20.6999 269.04 20.1719 268.74 19.7639C268.452 19.3439 267.876 18.9599 267.012 18.6119C266.148 18.2639 264.864 17.8559 263.16 17.3879C261.36 16.9079 259.95 16.4279 258.93 15.9479C257.922 15.4679 257.208 14.9219 256.788 14.3099C256.38 13.6979 256.176 12.9479 256.176 12.0599C256.176 10.9919 256.482 10.0559 257.094 9.25189C257.706 8.43589 258.558 7.79989 259.65 7.34389C260.754 6.88789 262.026 6.65989 263.466 6.65989C264.906 6.65989 266.202 6.89989 267.354 7.37989C268.506 7.84789 269.436 8.50789 270.144 9.35989C270.852 10.1999 271.26 11.1779 271.368 12.2939L269.244 12.6899C269.04 11.4419 268.41 10.4579 267.354 9.73789C266.298 9.00589 264.978 8.63389 263.394 8.62189C261.894 8.59789 260.67 8.89789 259.722 9.52189C258.774 10.1339 258.3 10.9439 258.3 11.9519C258.3 12.5279 258.462 13.0199 258.786 13.4279C259.122 13.8239 259.71 14.1899 260.55 14.5259C261.39 14.8619 262.578 15.2219 264.114 15.6059C265.986 16.0859 267.444 16.5779 268.488 17.0819C269.544 17.5859 270.288 18.1799 270.72 18.8639C271.152 19.5359 271.368 20.3699 271.368 21.3659C271.368 23.1659 270.696 24.5819 269.352 25.6139C268.02 26.6339 266.184 27.1439 263.844 27.1439Z" fill="black"/>
</svg>
